<?xml version="1.0" encoding="UTF-8"?>
<svg id="_레이어_1" data-name="레이어_1" xmlns="http://www.w3.org/2000/svg" version="1.1" viewBox="0 0 532 334.32">
  <!-- Generator: Adobe Illustrator 30.6.0, SVG Export Plug-In . SVG Version: 2.1.4 Build 109)  -->
  <defs>
    <style>
      .st0 {
        fill: #fd5445;
      }

      .st1 {
        fill: #959aa7;
      }

      .st2 {
        fill: #fe7367;
      }

      .st3 {
        fill: #313539;
      }

      .st4 {
        fill: #fd5a47;
      }

      .st5 {
        fill: #fd6455;
      }
    </style>
  </defs>
  <path class="st0" d="M22.71,51.87c.76,0,1.53,0,2.32,0,1.62,0,3.24,0,4.86,0,2.47,0,4.95,0,7.42,0,1.57,0,3.15,0,4.72,0,.74,0,1.48,0,2.24,0,3.49.02,6.32.28,9.74,1.14v73h84V53q35.2-1.6,40,0c1.54,3.08,1.14,6.3,1.13,9.67,0,.8,0,1.6,0,2.43,0,2.7,0,5.4,0,8.1,0,1.93,0,3.86,0,5.79,0,5.25,0,10.5,0,15.76,0,5.48,0,10.97,0,16.45,0,9.21,0,18.42,0,27.63,0,10.67,0,21.33,0,32,0,9.14,0,18.28,0,27.42,0,5.47,0,10.93,0,16.4,0,5.14,0,10.27,0,15.41,0,1.89,0,3.78,0,5.67,0,2.57,0,5.14,0,7.71,0,.76,0,1.52,0,2.3q-.02,5.14-1.13,6.25h-40v-86H54c.01,6.12.02,12.25.04,18.56,0,3.87,0,7.74.01,11.61,0,6.15.01,12.3.03,18.44.01,4.95.02,9.91.02,14.86,0,1.89,0,3.79.01,5.68,0,2.64,0,5.29,0,7.93,0,.79,0,1.58.01,2.4q-.01,5.4-1.12,6.52H13V53c3.08-1.54,6.33-1.14,9.71-1.13Z"/>
  <path class="st4" d="M483,86q3,1,4.28,3.08c7.26,16.28,9.47,32.74,3.72,49.92-7.29,18.14-20.51,30.42-38.12,38.22-3.87,1.61-7.81,2.84-11.88,3.78,3.9,5.48,8.18,10.45,12.76,15.36,3.85,4.16,7.43,8.5,10.99,12.91,3.18,3.85,6.55,7.51,9.93,11.19,5.31,5.79,10.4,11.77,15.52,17.73.51.59,1.02,1.19,1.55,1.8q8.26,9.64,8.26,12.01c-7.33.36-14.65.6-21.98.77-2.49.07-4.98.17-7.47.29q-21.82,1.04-27.8-4.07c-2.68-2.85-4.82-5.92-6.76-9.31-1.35-2.3-2.98-4.31-4.67-6.36-.54-.71-1.08-1.41-1.63-2.14-3.46-4.48-7.08-8.81-10.68-13.18-1.12-1.36-2.25-2.73-3.37-4.09-1.82-2.21-3.64-4.42-5.46-6.62-4.12-5-8.23-10.01-12.33-15.03-2.26-2.76-4.55-5.51-6.84-8.25,3.27-7.18,9.5-12.54,15.04-18.01,1.88-1.9,3.65-3.85,5.4-5.87.57-.65,1.13-1.3,1.72-1.97,1.36-1.59,2.69-3.19,4-4.81q6.69-7.97,12.73-8.89c5.5-1.18,10.51-4.26,13.82-8.79,2.1-3.94,3.27-6.81,3.39-11.34.68-5.61,4.2-8.53,8.15-12.29.73-.72,1.45-1.44,2.2-2.18,2.31-2.28,4.65-4.54,6.99-6.79,1.57-1.54,3.14-3.09,4.71-4.63,2.86-2.81,5.73-5.62,8.62-8.41.58-.56,1.16-1.12,1.75-1.7q1.49-1.32,3.49-2.32Z"/>
  <path class="st3" d="M301,132q1.65,1.8,2,4c-1.25,2.45-2.48,4.47-4.06,6.69-.85,1.24-1.69,2.49-2.53,3.74-.41.61-.83,1.21-1.25,1.84-2.29,3.44-4.23,7.08-6.15,10.74-2.52-1-5.03-2.01-7.54-3.04-.83-.34-1.67-.68-2.53-1.03-.84-.34-1.67-.68-2.54-1.04-8.52-3.2-16.41-2.56-24.8.85-8.09,3.88-12.84,9.08-16.61,17.25-3.55,10.28-3.61,22.6.74,32.64,4.1,7.7,8.95,12.98,17.23,16.11,9.78,2.82,18.72,1.09,28.03-2.75,2.73-1.58,5.38-3.26,8-5,2.15,3.75,4.3,7.5,6.44,11.25q.31.53,1.85,3.22c.58,1.02,1.17,2.05,1.77,3.11.54.94,1.08,1.89,1.63,2.86,1.14,2.24,1.84,4.12,2.31,6.57-17.05,11.77-34.59,16.04-55.36,12.79-16.61-3.6-31.62-12.73-41.01-27.04-10.68-18-12.88-36.56-8.12-56.83,3.9-15.04,14.14-28.88,27.3-37.13,23.14-13.61,52.24-14.48,75.19.22Z"/>
  <path class="st4" d="M307.68,51.87q.45,0,2.73,0c3.01,0,6.01,0,9.02,0,2.11,0,4.23,0,6.34,0,4.46,0,8.92,0,13.38,0,5.61,0,11.22,0,16.83,0q39.28-.04,58.14.41c2.02.05,4.04.08,6.06.11,22.19.63,42.07,7.5,57.81,23.61,1.55,1.96,2.77,3.82,4,6-7.47,3.9-15.11,7.31-22.87,10.56-1.31.55-2.61,1.1-3.91,1.66-1.91.82-3.82,1.63-5.74,2.43-1.13.48-2.25.95-3.41,1.44-5.19,1.54-8.53-.14-13.13-2.59-4.93-2.61-8.65-3.62-14.24-3.66-1.07,0-2.15-.02-3.25-.03-1.17,0-2.35-.01-3.56-.02-1.24,0-2.48-.02-3.76-.03-3.39-.03-6.79-.05-10.18-.07-3.55-.02-7.1-.05-10.65-.08-6.72-.05-13.44-.09-20.15-.14-7.65-.05-15.3-.1-22.95-.16-15.73-.11-31.47-.22-47.2-.32v-38c3.32-1.66,7.03-1.14,10.68-1.13Z"/>
  <path class="st4" d="M454,100c.33.99.66,1.98,1,3q-.37.29-2.23,1.76c-5.15,4.13-9.74,8.02-13.77,13.24q-4.52,4.84-8,6v2c-1.63,1.73-3.28,3.36-5,5-1.38,1.35-2.75,2.7-4.12,4.06-.66.65-1.33,1.3-2.01,1.97q-1.87,1.96-3.48,4.21c-.46.58-.91,1.16-1.38,1.75h-2c-.24.57-.49,1.14-.74,1.73-1.49,2.67-3.24,4.4-5.45,6.52-2.82,2.75-5.52,5.5-8.06,8.5-3.72,4.35-7.78,8.33-11.87,12.33-2.88,2.84-5.62,5.73-8.26,8.79-4.49,5.2-9.41,9.96-14.31,14.77-3.39,3.36-6.7,6.73-9.81,10.35-3.82,4.44-7.96,8.53-12.13,12.63q-8.19,8.05-11.27,11.9c-.69.82-1.39,1.63-2.1,2.48h-2l-1,2c-1.79-1.79-1.51-4.51-1.8-6.94q-.08-.64-.46-3.86c-.08-.68-.16-1.37-.24-2.08-1.67-14.21-3.67-28.36-5.92-42.49-.11-.67-.21-1.34-.32-2.03-.28-1.8-.57-3.61-.86-5.41-.38-3.11-.47-6.08-.4-9.2q29.97-14.61,40.84-19.25c4.28-1.85,8.44-3.89,12.6-6,8.06-4.07,16.29-7.74,24.56-11.38,1.57-.7,3.15-1.39,4.72-2.09,11.46-5.07,22.96-10.08,34.47-15.03,6.97-3,13.91-6.08,20.81-9.25Z"/>
  <path d="M91,287q22,0,30,3c3.53,3.53,4.32,6.59,4.62,11.44-.17,5.13-1.59,7.78-5.12,11.42q-1.51,1.14-3.51,1.14c.3.5.61,1.01.92,1.53,1.37,2.28,2.72,4.56,4.08,6.85q.24.4,1.45,2.41c.45.76.9,1.52,1.37,2.3.42.7.84,1.4,1.27,2.13q.92,1.79.92,3.79h-11c-.58-1.14-1.16-2.29-1.76-3.46-.79-1.49-1.58-2.98-2.37-4.47-.38-.75-.76-1.51-1.15-2.29q-.19-.36-1.17-2.18c-.35-.67-.69-1.33-1.05-2.02q-1.51-1.58-7.51-2.58v17h-10v-46ZM101,295v13c1.57.06,3.14.12,4.75.19.88.03,1.76.07,2.67.11,3.09-.35,4.39-1.11,6.58-3.29q.56-3.5,0-7c-3.01-3.01-5.74-3.16-9.81-3.19-1.38.06-2.76.12-4.19.19Z"/>
  <path class="st4" d="M373,287q21,0,29,3c3.14,3.3,4.89,5.62,5.25,10.19-.34,5.18-1.47,9.24-5.44,12.75-.6.35-1.2.7-1.81,1.06.58,4.79,2.64,8.25,5.06,12.31.38.65.75,1.29,1.14,1.96.93,1.58,1.86,3.16,2.79,4.73h-12c-1.34-2.46-2.67-4.91-4-7.38-.38-.7-.76-1.4-1.16-2.12q-2.84-5.28-2.84-7.51h-6c.01,1.22.02,2.43.04,3.68,0,1.58.02,3.17.03,4.75,0,.8.02,1.6.03,2.43,0,2.04-.04,4.09-.09,6.13q-.16.17-1,1h-9v-47ZM382,295c.33,4.29.66,8.58,1,13q9.17.48,12.69-1.56c1.89-3.51,1.36-5.67.31-9.44-3.42-2.28-4.68-2.22-8.69-2.12-1.75.04-3.51.08-5.31.12Z"/>
  <path d="M279,287q25.57,0,31.94,5.75c2.33,4.93,2.61,9.39.94,14.5-1.36,3.71-3.75,5.43-6.88,7.75.65,1.13,1.3,2.26,1.97,3.43.84,1.48,1.69,2.96,2.53,4.45.43.75.86,1.49,1.3,2.26.41.72.81,1.43,1.23,2.17.38.66.75,1.32,1.14,2q.83,1.7.83,3.7h-11c-1.34-2.46-2.67-4.91-4-7.38-.38-.7-.76-1.4-1.16-2.12q-2.84-5.28-2.84-7.51h-6c.01,1.14.02,2.29.04,3.46,0,1.49.02,2.98.03,4.47,0,.75.02,1.51.03,2.29,0,1.93-.04,3.85-.09,5.78q-.16.17-1,1h-9v-46ZM289,295v13q8.11.61,12.12-2.12,1.88-2.88,1.94-6.06-1.06-2.81-2.83-3.98c-3.75-1.4-7.26-.95-11.23-.83Z"/>
  <path d="M12,287h10v18h16v-18h10v46h-10v-19h-16v19h-10v-46Z"/>
  <path class="st4" d="M500,12c2.39,3.58,3.35,7.22,4.5,11.31.63,2.22,1.27,4.44,1.92,6.65.52,1.81.98,3.64,1.43,5.47q1.15,2.56,3.33,3.7c.89.18,1.78.36,2.7.55.97.22,1.95.43,2.95.66,1.05.22,2.1.43,3.18.66,2.23.55,4.46,1.12,6.69,1.69,1.77.44,3.54.88,5.31,1.31v2c-.62.18-1.23.36-1.86.55-2.8.84-5.59,1.71-8.39,2.58-.97.28-1.94.57-2.93.86-4.29,1.36-7.16,2.32-10.29,5.64-1.97,4.33-3.44,8.69-4.78,13.25-.27.88-.54,1.76-.81,2.66-.65,2.15-1.3,4.3-1.94,6.46q-2-1-2.76-2.89c-.23-.81-.47-1.61-.71-2.45q-.13-.44-.79-2.67c-.26-.93-.53-1.85-.8-2.81-.27-.92-.54-1.83-.81-2.78q-2.02-6.91-2.59-9.65c-.18-.58-.35-1.16-.53-1.76q-1.83-.91-4.25-1.5c-.89-.23-1.78-.47-2.7-.71-1.01-.26-2.02-.52-3.05-.79-2.38-.72-4.75-1.45-7.12-2.19-1.12-.34-2.23-.69-3.38-1.04q-.41-.13-2.49-.77v-2c1.64-.44,3.29-.88,4.93-1.32,1.38-.37,2.77-.75,4.15-1.13,3.55-.97,7.03-1.73,10.67-2.24q3.25-1.31,4.25-2.87c.89-2.46,1.45-4.88,2-7.44.52-2.1,1.05-4.2,1.58-6.3.36-1.46.72-2.92,1.07-4.38q1.25-5.22,2.36-6.32Z"/>
  <path d="M241,287h12c2,6.07,3.99,12.14,5.98,18.21.68,2.07,1.36,4.13,2.04,6.2.98,2.96,1.95,5.93,2.92,8.9.31.93.61,1.85.93,2.8.28.86.56,1.72.85,2.61.25.76.5,1.51.75,2.29q.53,1.99.53,4.99h-10q-3-7.62-3-11h-15c-.31,1.63-.62,3.26-.94,4.94q-.94,4.94-2.06,6.06c-1.69.07-3.38.08-5.06.06-.92,0-1.84-.02-2.79-.03-.71-.01-1.42-.02-2.15-.04,4.84-15.39,9.86-30.71,15-46ZM246,297c-1.32,5.61-2.64,11.22-4,17h9c-.64-5.91-2.19-11.34-4-17h-1Z"/>
  <path class="st4" d="M432,287h11c3.47,8.25,6.27,16.66,9,25.17.76,2.35,1.52,4.7,2.28,7.06.48,1.5.97,2.99,1.45,4.49.23.7.46,1.4.69,2.13q1.57,4.92,1.57,7.15h-10q-3-7.62-3-11c-4.95.33-9.9.66-15,1-.99,3.3-1.98,6.6-3,10h-10c1.25-5.99,2.77-11.69,4.79-17.46.26-.76.52-1.52.79-2.3.55-1.59,1.1-3.17,1.65-4.76.85-2.43,1.68-4.87,2.52-7.3.53-1.55,1.07-3.1,1.6-4.64.25-.73.5-1.45.76-2.2q1.77-5.1,2.89-7.33ZM437,296c-.67,2.25-1.34,4.5-2,6.75-.37,1.25-.74,2.51-1.12,3.8q-.88,3.45-.88,7.45h9c-.29-1.3-.58-2.6-.88-3.94-1.04-4.69-2.08-9.38-3.12-14.06h-1Z"/>
  <path d="M330.68,286.89c1.17,0,2.34.01,3.54.02,1.26,0,2.52,0,3.82,0,1.34,0,2.68.02,4.02.03,1.34,0,2.69,0,4.03.01,3.3.01,6.6.03,9.9.05v9c-6.43.1-12.61-.28-19-1v10c1.14-.01,2.29-.02,3.46-.04,1.49,0,2.98-.02,4.47-.03.75,0,1.51-.02,2.29-.03,1.93,0,3.85.04,5.78.09q1,1,1.12,4.5-.12,3.5-1.12,4.5c-2.7.07-5.37.09-8.06.06-.76,0-1.52,0-2.3-.01-1.88-.01-3.76-.03-5.64-.05v11h20v8h-30c-.02-6.39-.04-12.78-.05-19.17,0-2.18-.01-4.35-.02-6.53-.01-3.12-.02-6.24-.02-9.36,0-.98-.01-1.96-.02-2.97,0-.9,0-1.8,0-2.73,0-.8,0-1.59,0-2.42.2-2.99.79-2.81,3.8-2.94Z"/>
  <path d="M140,287c4.6-.02,9.2-.04,13.94-.06,1.45,0,2.91-.02,4.4-.03,1.13,0,2.27,0,3.44,0q.58,0,3.54-.02,2.68.11,3.68,1.11v7c-5.94.33-11.88.66-18,1-.33,2.97-.66,5.94-1,9h16v9h-16v11h19v8h-29v-46Z"/>
  <path d="M216.57,290.94c.47.35.95.7,1.43,1.06-1.53,3.33-2.93,4.96-6,7l-1.5-1.5c-3.46-2.07-6.62-2.32-10.5-1.5-4.14,3.06-5.9,6-7,11-.5,5.46.4,9.17,3,14,1.87,2.15,3.08,2.87,5.89,3.28,3.51.16,5.54.06,8.61-1.78.49-.5.99-.99,1.5-1.5,3.37,1.39,4.99,2.98,7,6-6,5.3-10.28,7.51-18.44,7.31-5.83-.7-9.98-3.38-13.93-7.62-5.03-6.47-5.32-13.78-4.62-21.69,1.22-6.96,4.24-11.87,10-16,8.78-4.65,16.57-3.56,24.57,1.94Z"/>
  <path class="st4" d="M463,287h10c3.06,5.9,5.79,11.73,8,18,2.87-3.41,4.51-7.17,6.19-11.25.27-.65.55-1.3.83-1.97.67-1.59,1.33-3.19,1.99-4.78h10c-.6,3.93-1.82,6.87-3.72,10.35-.54,1.02-1.08,2.03-1.63,3.08-1.13,2.11-2.27,4.22-3.43,6.31-3.74,7.15-4.76,12.27-4.22,20.25-.27,2.01-.57,4.02-1,6h-9c-.88-3.66-.94-6.69-.66-10.43.07-7.87-3.25-13.88-6.84-20.7-1.23-2.39-2.44-4.8-3.66-7.2q-.27-.52-1.65-3.16-1.19-2.52-1.19-4.52Z"/>
  <path d="M65,287h9q1,1,1.12,2.83,0,.4,0,2.42c0,.9,0,1.8,0,2.73,0,.98-.01,1.96-.02,2.97,0,1,0,1.99,0,3.02,0,3.2-.02,6.4-.03,9.6,0,2.16,0,4.33-.01,6.49-.01,5.32-.03,10.63-.05,15.95h-10v-46Z"/>
  <path d="M289.81,292.69c.72.1,1.44.21,2.19.31-1.32.33-2.64.66-4,1v15h10c-.66.66-1.32,1.32-2,2q-.62,2.12-1,4h-7v18h-9c-.19-13.02.39-26,1-39,.66,1.32,1.32,2.64,2,4,.72-.82,1.44-1.65,2.19-2.5q2.81-2.5,5.62-2.81Z"/>
  <path class="st4" d="M394,288c4.87.45,7.49,1.58,11,5,2.53,3.49,2.36,6.79,2,11-1.82,5.86-4.2,8.48-9,12q-.05-.39-.31-2.38-.69-2.62-3.69-4.62c-4.01-.27-7.97-.09-12,0v-13h1v12q.79-.05,4.81-.31c.89-.06,1.79-.12,2.71-.18,2.83-.58,3.84-1.14,5.48-3.51q-.19-3.62-1-7c-2.57-1.28-4.77-1.33-7.62-1.56q-.5-.04-3.04-.25c-.77-.06-1.54-.12-2.34-.18v-1l9-1c.33-.99.66-1.98,1-3h2v-2Z"/>
  <path d="M140,287h28v1h-27v44q1.15-.17,7-1l1-4h18c.33,1.65.66,3.3,1,5v-6h-19v-13h16v-7h-16v-11h1v10h16v9h-16v11h19v8h-29v-46Z"/>
  <path d="M216.57,290.94c.47.35.95.7,1.43,1.06-1.53,3.33-2.93,4.96-6,7l-1.5-1.5c-3.45-2.07-6.63-2.35-10.5-1.5q-2.88,2.38-5,5l-2,2c-.33-1.98-.66-3.96-1-6h-3c-.66.66-1.32,1.32-2,2l-2-1c2.52-5.67,6.72-9.03,12.38-11.44,7.64-1.19,12.82,0,19.19,4.38Z"/>
  <path d="M13,288h8v17h-1v-16h-6c.33,6.27.66,12.54,1,19,1.65.33,3.3.66,5,1l3,1v2h15v1h-17v20h-8v-45Z"/>
  <path d="M236,312c1.69.61,3.35,1.28,5,2,1.93.28,3.87.48,5.81.62q.49.04,2.96.23c.74.05,1.47.1,2.23.15-.66,1.32-1.32,2.64-2,4h-2v2h-9c-.12,1.24-.25,2.48-.38,3.75-.35,3.46-.97,4.94-2.62,8.25h-10c1.32-4.29,2.64-8.58,4-13h2q.05-.47.31-2.88.69-3.12,3.69-5.12Z"/>
  <path class="st4" d="M425,310h7v5h2c-.33.99-.66,1.98-1,3h-4c.02.58.05,1.16.07,1.76.11,4.86-.2,8.67-2.07,13.24h-10c1.58-8.18,4.2-15.58,8-23Z"/>
  <path d="M91,287q22,0,30,3,1.5,2.19,2,4c-1.65,1.69-3.31,3.35-5,5h-1c-.33,2.31-.66,4.62-1,7h-3l1-1q.31-3.38,0-7-2-1.94-4-3l1-1c-3.3-.66-6.6-1.32-10-2,.33-.99.66-1.98,1-3-3.3-.33-6.6-.66-10-1v45h-1v-46Z"/>
  <path class="st4" d="M490,287h10c-.59,3.66-1.61,6.57-3.29,9.86-.45.89-.9,1.77-1.36,2.69-.47.91-.94,1.82-1.42,2.76-.47.93-.94,1.86-1.43,2.82-1.16,2.29-2.33,4.58-3.51,6.87q-1.12-3.75,0-6h-6v2l-2-1c.31-.69.63-1.38.95-2.09,2.71-5.96,5.4-11.92,8.05-17.91Z"/>
  <path d="M141,288h27v1h-26c.33,10.89.66,21.78,1,33,.99-.99,1.98-1.98,3-3h2v-6h1v13h19v6h-10v-1h9v-4q-2.81.17-17,1v4h-9v-44Z"/>
  <path class="st4" d="M450,313h2c1,2.96,2,5.92,3,8.88.29.84.57,1.68.87,2.55.27.81.54,1.61.82,2.44.25.74.5,1.49.76,2.25q.55,1.88.55,3.88h-10q-3-7.5-3-12h-6c.56-.27,1.11-.54,1.69-.81q2.31-1.19,4.94-2.81,2.38-1.38,4.38-1.38v-3Z"/>
  <path class="st4" d="M463,287h10c2.94,5.58,5.53,10.85,7,17-2.31-.33-4.62-.66-7-1,.35.74.7,1.49,1.06,2.25,1.01,2.96.82,3.87-.06,6.75-1.84-3.79-3.67-7.58-5.5-11.38-.52-1.08-1.05-2.16-1.59-3.27q-.25-.52-1.5-3.12-.23-.48-1.4-2.89-1.01-2.34-1.01-4.34Z"/>
  <path class="st4" d="M428,297q1.12,3.75,0,6c2.31.33,4.62.66,7,1-.66,3.3-1.32,6.6-2,10,2.97.33,5.94.66,9,1v2l6-1-5,4,2,2c-5.28.33-10.56.66-16,1v-5c.64-.12,1.28-.25,1.94-.38.68-.21,1.36-.41,2.06-.62l1-2h-2v-5c-4.16.46-6.21.88-9,4q3.08-11.52,5-17Z"/>
  <path d="M65,287h9v2h-7v42h6v-39h1v41h-9v-46Z"/>
  <path d="M39,288h8v45h-8v-15h7v-29h-7v-1Z"/>
  <path class="st4" d="M399,317c4.3,4.8,7,10.34,10,16h-12c-1.17-2.12-2.34-4.25-3.5-6.38-.33-.6-.67-1.21-1.01-1.83q-2.49-4.57-2.49-6.8c2.64.33,5.28.66,8,1l1-2Z"/>
  <path d="M337,326q1.97-.34,4.35-.29c.85,0,1.7.02,2.58.03.89.03,1.78.05,2.7.08q.45,0,2.72.04c2.22.04,4.44.08,6.66.15v6h-28v-1c1.11-.27,2.23-.54,3.38-.81q3.62-1.19,5.62-4.19Z"/>
  <path class="st4" d="M446,248c.93.16,1.87.33,2.83.49,4.97.71,9.91.63,14.92.6,1.01,0,2.02,0,3.06,0,3.21,0,6.42-.02,9.63-.03,2.18,0,4.37,0,6.55-.01,5.34-.01,10.67-.03,16.01-.05q.17.5,1,3h-53l-1-4Z"/>
  <path class="st5" d="M324,219q.33.07,2,.44c3.66.69,7.31,1.12,11,1.56-.59,3.61-2.03,5.54-4.44,8.25-.62.71-1.23,1.41-1.87,2.14q-1.69,1.61-3.69,1.61c-.33.66-.66,1.32-1,2-2.36-2.36-1.97-7.06-2.06-10.24,0-1.92.03-3.84.06-5.76Z"/>
  <path d="M306,319c2.5,2.28,4.07,4.61,5.69,7.56.44.79.87,1.57,1.32,2.38q.99,2.06.99,4.06c-3.71.28-7.3.44-11,0q-2.31-2.19-3-5,.56-2.75,2-5,2.12-.81,4-1v-3Z"/>
  <path class="st4" d="M382,296h1v12c1.59-.1,3.18-.21,4.81-.31.89-.06,1.79-.12,2.71-.18,2.83-.58,3.77-1.23,5.48-3.51q.69-2.69,1-5h1v5h8c-.32,5.26-3.39,8.44-7,12h-1q-.05-.39-.31-2.38-.69-2.62-3.69-4.62c-4.01-.27-7.97-.09-12,0v-13Z"/>
  <path d="M169,288v7c-2.92.3-5.83.57-8.75.81-.82.09-1.65.18-2.5.27-2.35.18-4.42.28-6.75-.08q-2.41-2.44-4-5-2.75-.81-5-1v-1c4.31-.17,8.62-.33,12.94-.5,1.23-.05,2.46-.1,3.73-.14q.58-.02,3.54-.14c1.08-.04,2.17-.08,3.28-.13q2.5-.09,3.5-.09Z"/>
  <path class="st4" d="M454,100c.33.99.66,1.98,1,3-1.75,1.44-3.5,2.88-5.25,4.31-.97.8-1.95,1.6-2.95,2.43-2.23,1.81-4.48,3.56-6.8,5.26q-3.88-1.75-5-4h-3l-1,2-2-2c8.25-3.63,16.5-7.26,25-11Z"/>
  <path class="st4" d="M505,57h2c-1.7,7.13-3.58,14.08-6,21-.66-.33-1.32-.66-2-1-.8-2.69-1.5-5.33-2.12-8.06-.18-.76-.36-1.52-.55-2.3-.45-1.88-.89-3.76-1.32-5.64h10v-4Z"/>
  <path class="st4" d="M425,310h7v5h2c-.33.99-.66,1.98-1,3h-4v5c-1.67.04-3.33.04-5,0q-1-1-1.19-4.81c.03-3.22.36-5.44,2.19-8.19Z"/>
  <path d="M117,322q3,1,5,3c.49.43.99.87,1.5,1.31,1.83,2.06,2.53,4.13,3.5,6.69-3.71.28-7.3.45-11,0-2.26-2.46-3-3.68-3-7h2l2-4Z"/>
  <path d="M328,288h27v6h-17c1.32-1.32,2.64-2.64,4-4q-2.31-.16-14-1v-1Z"/>
  <path class="st4" d="M394,308l1,2c.99.33,1.98.66,3,1,.33,2.64.66,5.28,1,8q-3.44-.81-7-2c-.33-.99-.66-1.98-1-3-2-.68-4-1.35-6-2-.66-.99-1.32-1.98-2-3q1.81-.17,11-1Z"/>
  <path class="st4" d="M500,12c2.21,3.31,2.78,5.82,3.62,9.69.26,1.18.52,2.36.79,3.57.19.9.39,1.81.59,2.74-1.11-.02-2.23-.04-3.38-.06q-3.62.06-5.62,1.06c.55-6.05,1.9-11.31,4-17Z"/>
  <path d="M188,295q1.94.5,4,2c.76,2.73.86,5.13,1,8l-1,1c-.37,2.33-.7,4.66-1,7h-1v-6q-.99-.16-6-1c.33-2.64.66-5.28,1-8,.99-.33,1.98-.66,3-1v-2Z"/>
  <path d="M259,312c1.71,1.63,2.93,2.87,4,5,.04,2.33.04,4.67,0,7q-2.81.69-6,1-1.69-1.38-3-3c-.99-.33-1.98-.66-3-1v-2q5.75-3,8-3v-4Z"/>
  <path class="st4" d="M428,297q1.12,3.75,0,6c2.31.33,4.62.66,7,1-.66,3.3-1.32,6.6-2,10-.33-1.32-.66-2.64-1-4-4.16.46-6.21.88-9,4q3.08-11.52,5-17Z"/>
  <path d="M337,305c2.65-.03,5.29-.05,7.94-.06.75,0,1.51-.02,2.29-.03,1.93,0,3.85.04,5.78.09q1,1,1.06,4.56c-.02,1.13-.04,2.27-.06,3.44-4.29-.33-8.58-.66-13-1,1.65-1.65,3.3-3.3,5-5-2.97-.33-5.94-.66-9-1v-1Z"/>
  <path class="st4" d="M374,289h6c2.23,4.33,1.92,7.28,1,12-1.98-.66-3.96-1.32-6-2-.33-3.3-.66-6.6-1-10Z"/>
  <path class="st4" d="M402,294c.33.99.66,1.98,1,3,.66-.33,1.32-.66,2-1,.33,2.64.66,5.28,1,8h-8c-.23-2.02-.46-4.04-.68-6.05q-.32-1.95-1.32-3.95,3.75-1.12,6,0Z"/>
  <path class="st4" d="M382,323v9h-8v-8c2.76-.6,5.16-1,8-1Z"/>
  <path class="st4" d="M473,302q5.6.6,8,3c.4,1.99.74,3.99,1,6q-2.38,1.06-5,2-2-1-2.85-3.07c-.26-.82-.51-1.65-.77-2.5-.26-.83-.52-1.65-.79-2.5-.19-.64-.39-1.28-.59-1.93l1-1Z"/>
  <path class="st4" d="M448.12,316.88c.95.04,1.9.08,2.88.12v2h2c.33,1.65.66,3.3,1,5q-2.81.62-6,1c-.99-.66-1.98-1.32-3-2v-2h-6c.62-.29,1.24-.58,1.88-.88q6.05-3.2,7.25-3.25Z"/>
  <path d="M280,322l1,2c1.98-.66,3.96-1.32,6-2v10h-7v-10Z"/>
  <path class="st4" d="M490,287h10q-.75,4.75-3,7c-.66-.33-1.32-.66-2-1v-2c-.99.33-1.98.66-3,1l1,2c-1.98.33-3.96.66-6,1q1.88-5.75,3-8Z"/>
  <path class="st4" d="M478,320h7v7c-2.64.66-5.28,1.32-8,2,.33-2.97.66-5.94,1-9Z"/>
  <path class="st4" d="M445,298c.33.99.66,1.98,1,3h2v6c-3.01.93-3.87,1.04-7,0-.33-2.31-.66-4.62-1-7h5v-2Z"/>
  <path d="M299,293q2.44,1.5,4,3c-.33.99-.66,1.98-1,3l-1-2q-2.72-.63-6.06-1.12c-1.96-.29-3.92-.58-5.94-.88v13h9v1h-10v-15c3.95-.99,6.95-1.29,11-1Z"/>
  <path class="st4" d="M399,317l3,3c-.33.66-.66,1.32-1,2-.99-.33-1.98-.66-3-1v3q-.33.16-2,1c.33.66.66,1.32,1,2-.66.66-1.32,1.32-2,2-.84-1.46-1.67-2.91-2.5-4.38q-.23-.41-1.41-2.46t-1.09-4.16c2.64.33,5.28.66,8,1l1-2Z"/>
  <path class="st4" d="M486,328v5h-9v-4c3.35-2.11,5.22-2.05,9-1Z"/>
  <path class="st4" d="M427,112l2,1q-3.75,4.88-6,6h-6l-2,1c-.66-.66-1.32-1.32-2-2,2.29-1.03,4.58-2.05,6.88-3.06.65-.29,1.3-.59,1.97-.89,1.69-.74,3.42-1.4,5.15-2.04Z"/>
  <path class="st4" d="M491,291q.99.17,6,1v2h-2c-.33.99-.66,1.98-1,3l-1,2h-5c-.33-1.32-.66-2.64-1-4h2c.33-.99.66-1.98,1-3v2c.66-.33,1.32-.66,2-1l-1-2Z"/>
  <path class="st4" d="M423,314c.33.99.66,1.98,1,3,3.3-.33,6.6-.66,10-1-.33.66-.66,1.32-1,2h-4v5c-1.67.04-3.33.04-5,0q-1-1-1.1-2.85c.03-2.05.07-4.1.1-6.15Z"/>
  <path class="st4" d="M422,315h1c.33,2.31.66,4.62,1,7,1.65.33,3.3.66,5,1-.33,2.64-.66,5.28-1,8h-1v-5q-5.75-1.12-8,0c.99-3.63,1.98-7.26,3-11Z"/>
  <path class="st4" d="M503,66c1.16,3.48.77,4.34-.44,7.69-.29.81-.57,1.62-.87,2.45-.23.61-.46,1.23-.69,1.86-.66-.33-1.32-.66-2-1q-.63-2.29-1.12-5.06c-.17-.92-.34-1.84-.51-2.79-.12-.71-.24-1.42-.37-2.15.33.66.66,1.32,1,2h2v-2c.99-.33,1.98-.66,3-1Z"/>
  <path class="st4" d="M497,294c-1.35,4.36-3.05,8.31-5.12,12.38-.54,1.06-1.08,2.12-1.63,3.21-.41.8-.82,1.59-1.24,2.41-.88-2.47-1.13-3.64-.22-6.14.38-.7.77-1.39,1.16-2.11.38-.71.76-1.41,1.15-2.14.3-.53.6-1.06.91-1.61-.99-.33-1.98-.66-3-1,.99-.66,1.98-1.32,3-2q.26-.27,1.56-1.62t3.44-1.38Z"/>
  <path d="M353,289l1,4h-14c.66-.99,1.32-1.98,2-3q2.6-.51,5.62-.69.5-.03,3.04-.2c.77-.04,1.54-.07,2.34-.11Z"/>
  <path class="st4" d="M478,77l4,4c-2.32,2.68-4.32,3.66-7.69,4.69q-.4.13-2.45.76c-.61.18-1.23.36-1.86.55l-1-3q4.43-2.09,7.31-1.62c.56.21,1.11.41,1.69.62-.19-.62-.37-1.24-.56-1.88q-.44-2.12.56-4.12Z"/>
  <path d="M338,307h8c-1.32,1.32-2.64,2.64-4,4,3.63.33,7.26.66,11,1v1h-17c.99-1.32,1.98-2.64,3-4l-1-2Z"/>
  <path class="st2" d="M331,225l2,1c-.56,3.24-1.41,4.93-4,7h-2l-1,2c-.33-1.65-.66-3.3-1-5,1.98-1.65,3.96-3.3,6-5Z"/>
  <path class="st1" d="M0,0"/>
  <path class="st1" d="M0,0"/>
  <path class="st1" d="M0,0"/>
  <path class="st1" d="M0,0"/>
</svg>